<mxfile host="app.diagrams.net" agent="Mozilla/5.0 (X11; Linux x86_64; rv:130.0) Gecko/20100101 Firefox/130.0" version="24.7.12">
  <diagram name="Page-1" id="P9Tq-ydbmT9_pM8Wnxsb">
    <mxGraphModel dx="880" dy="478" grid="1" gridSize="10" guides="1" tooltips="1" connect="1" arrows="1" fold="1" page="1" pageScale="1" pageWidth="850" pageHeight="1100" math="0" shadow="0">
      <root>
        <mxCell id="0" />
        <mxCell id="1" parent="0" />
        <mxCell id="4BVYYYAAS2Yo5goiNety-1" value="Consulta" style="swimlane;fontStyle=1;align=center;verticalAlign=top;childLayout=stackLayout;horizontal=1;startSize=26;horizontalStack=0;resizeParent=1;resizeParentMax=0;resizeLast=0;collapsible=1;marginBottom=0;whiteSpace=wrap;html=1;" vertex="1" parent="1">
          <mxGeometry x="180" y="170" width="490" height="196" as="geometry" />
        </mxCell>
        <mxCell id="4BVYYYAAS2Yo5goiNety-2" value="&lt;div&gt;+ hospital: Hospital&lt;/div&gt;&lt;div&gt;+ especialidade: String&lt;/div&gt;&lt;div&gt;+ medico: Medico&lt;/div&gt;&lt;div&gt;+ data: LocalDate&lt;/div&gt;&lt;div&gt;+ receitaMedica: ReceitaMedica&lt;/div&gt;&lt;div&gt;+ horario: LocalTime&lt;/div&gt;&lt;div&gt;+ paciente: Paciente&lt;/div&gt;&lt;div&gt;+ status: Status&lt;br&gt;&lt;/div&gt;" style="text;strokeColor=none;fillColor=none;align=left;verticalAlign=top;spacingLeft=4;spacingRight=4;overflow=hidden;rotatable=0;points=[[0,0.5],[1,0.5]];portConstraint=eastwest;whiteSpace=wrap;html=1;" vertex="1" parent="4BVYYYAAS2Yo5goiNety-1">
          <mxGeometry y="26" width="490" height="124" as="geometry" />
        </mxCell>
        <mxCell id="4BVYYYAAS2Yo5goiNety-3" value="" style="line;strokeWidth=1;fillColor=none;align=left;verticalAlign=middle;spacingTop=-1;spacingLeft=3;spacingRight=3;rotatable=0;labelPosition=right;points=[];portConstraint=eastwest;strokeColor=inherit;" vertex="1" parent="4BVYYYAAS2Yo5goiNety-1">
          <mxGeometry y="150" width="490" height="20" as="geometry" />
        </mxCell>
        <mxCell id="4BVYYYAAS2Yo5goiNety-4" value="+ criarReceitaMedica(String receitaId, String medicamento, String observacoes): String" style="text;strokeColor=none;fillColor=none;align=left;verticalAlign=top;spacingLeft=4;spacingRight=4;overflow=hidden;rotatable=0;points=[[0,0.5],[1,0.5]];portConstraint=eastwest;whiteSpace=wrap;html=1;" vertex="1" parent="4BVYYYAAS2Yo5goiNety-1">
          <mxGeometry y="170" width="490" height="26" as="geometry" />
        </mxCell>
      </root>
    </mxGraphModel>
  </diagram>
</mxfile>
